HIERARCHY
ROOT Hips
{
	OFFSET -0.0000 110.6000 0.0000
	CHANNELS 6 Xposition Yposition Zposition Yrotation Xrotation Zrotation
	JOINT RightUpperLeg
	{
		OFFSET -10.4000 -8.9000 0.0000
		CHANNELS 3 Yrotation Xrotation Zrotation
		JOINT RightLowerLeg
		{
			OFFSET -0.0000 -45.6000 0.0000
			CHANNELS 3 Yrotation Xrotation Zrotation
			JOINT RightFoot
			{
				OFFSET -0.0000 -46.7000 0.0000
				CHANNELS 3 Yrotation Xrotation Zrotation
				JOINT RightToe
				{
					OFFSET -0.0000 -8.0000 12.0000
					CHANNELS 3 Yrotation Xrotation Zrotation
					End Site
					{
						OFFSET -0.0000 0.0000 2.4000
					}
				}
			}
		}
	}
	JOINT LeftUpperLeg
	{
		OFFSET 10.4000 -8.9000 0.0000
		CHANNELS 3 Yrotation Xrotation Zrotation
		JOINT LeftLowerLeg
		{
			OFFSET -0.1000 -45.6000 0.0000
			CHANNELS 3 Yrotation Xrotation Zrotation
			JOINT LeftFoot
			{
				OFFSET -0.0000 -46.7000 0.0000
				CHANNELS 3 Yrotation Xrotation Zrotation
				JOINT LeftToe
				{
					OFFSET -0.0000 -8.0000 12.0000
					CHANNELS 3 Yrotation Xrotation Zrotation
					End Site
					{
						OFFSET -0.0000 0.0000 2.4000
					}
				}
			}
		}
	}
	JOINT Spine
	{
		OFFSET -0.0000 9.6000 0.0000
		CHANNELS 3 Yrotation Xrotation Zrotation
		JOINT Spine1
		{
			OFFSET -0.0000 11.2000 0.0000
			CHANNELS 3 Yrotation Xrotation Zrotation
			JOINT Spine2
			{
				OFFSET -0.0000 12.1000 0.0000
				CHANNELS 3 Yrotation Xrotation Zrotation
				JOINT Spine3
				{
					OFFSET -0.0000 11.7000 0.0000
					CHANNELS 3 Yrotation Xrotation Zrotation
					JOINT Neck
					{
						OFFSET -0.0000 12.0000 0.0000
						CHANNELS 3 Yrotation Xrotation Zrotation
						JOINT Head
						{
							OFFSET -0.0000 10.1000 0.0000
							CHANNELS 3 Yrotation Xrotation Zrotation
							End Site
							{
								OFFSET -0.0000 20.2000 0.0000
							}
						}
					}
					JOINT RightShoulder
					{
						OFFSET -4.8000 4.0000 0.0000
						CHANNELS 3 Yrotation Xrotation Zrotation
						JOINT RightUpperArm
						{
							OFFSET -15.6000 0.0000 0.0000
							CHANNELS 3 Yrotation Xrotation Zrotation
							JOINT RightLowerArm
							{
								OFFSET -26.0000 0.0000 0.0000
								CHANNELS 3 Yrotation Xrotation Zrotation
								JOINT RightHand
								{
									OFFSET -28.4000 0.0000 0.0000
									CHANNELS 3 Yrotation Xrotation Zrotation
									JOINT RightThumbFinger
									{
										OFFSET -3.3000 0.4000 4.1000
										CHANNELS 3 Yrotation Xrotation Zrotation
										JOINT RightThumbFinger1
										{
											OFFSET -3.5000 0.0000 3.5000
											CHANNELS 3 Yrotation Xrotation Zrotation
											JOINT RightThumbFinger2
											{
												OFFSET -2.5000 0.0000 2.5000
												CHANNELS 3 Yrotation Xrotation Zrotation
												End Site
												{
													OFFSET -2.1450 0.0000 2.1450
												}
											}
										}
									}
									JOINT RightIndexFinger
									{
										OFFSET -4.3000 0.7000 2.5000
										CHANNELS 3 Yrotation Xrotation Zrotation
										JOINT RightIndexFinger1
										{
											OFFSET -7.0000 -0.1000 1.4000
											CHANNELS 3 Yrotation Xrotation Zrotation
											JOINT RightIndexFinger2
											{
												OFFSET -5.0000 -0.2000 0.0000
												CHANNELS 3 Yrotation Xrotation Zrotation
												JOINT RightIndexFinger3
												{
													OFFSET -2.8000 -0.2000 0.0000
													CHANNELS 3 Yrotation Xrotation Zrotation
													End Site
													{
														OFFSET -2.4696 -0.1764 0.0000
													}
												}
											}
										}
									}
									JOINT RightMiddleFinger
									{
										OFFSET -4.5000 0.7000 0.9000
										CHANNELS 3 Yrotation Xrotation Zrotation
										JOINT RightMiddleFinger1
										{
											OFFSET -7.1000 -0.1000 0.4000
											CHANNELS 3 Yrotation Xrotation Zrotation
											JOINT RightMiddleFinger2
											{
												OFFSET -5.2000 -0.2000 0.0000
												CHANNELS 3 Yrotation Xrotation Zrotation
												JOINT RightMiddleFinger3
												{
													OFFSET -3.4000 -0.4000 0.0000
													CHANNELS 3 Yrotation Xrotation Zrotation
													End Site
													{
														OFFSET -2.9988 -0.3528 0.0000
													}
												}
											}
										}
									}
									JOINT RightRingFinger
									{
										OFFSET -4.5000 0.9000 -0.1000
										CHANNELS 3 Yrotation Xrotation Zrotation
										JOINT RightRingFinger1
										{
											OFFSET -6.2000 -0.2000 -0.7000
											CHANNELS 3 Yrotation Xrotation Zrotation
											JOINT RightRingFinger2
											{
												OFFSET -4.7000 -0.3000 0.0000
												CHANNELS 3 Yrotation Xrotation Zrotation
												JOINT RightRingFinger3
												{
													OFFSET -3.3000 -0.4000 0.0000
													CHANNELS 3 Yrotation Xrotation Zrotation
													End Site
													{
														OFFSET -2.9106 -0.3528 0.0000
													}
												}
											}
										}
									}
									JOINT RightPinkyFinger
									{
										OFFSET -4.2000 0.7000 -1.6000
										CHANNELS 3 Yrotation Xrotation Zrotation
										JOINT RightPinkyFinger1
										{
											OFFSET -5.6000 -0.1000 -1.4000
											CHANNELS 3 Yrotation Xrotation Zrotation
											JOINT RightPinkyFinger2
											{
												OFFSET -3.8000 -0.2000 0.0000
												CHANNELS 3 Yrotation Xrotation Zrotation
												JOINT RightPinkyFinger3
												{
													OFFSET -2.3000 0.0000 0.0000
													CHANNELS 3 Yrotation Xrotation Zrotation
													End Site
													{
														OFFSET -2.0286 0.0000 0.0000
													}
												}
											}
										}
									}
								}
							}
						}
					}
					JOINT LeftShoulder
					{
						OFFSET 4.8000 4.0000 0.0000
						CHANNELS 3 Yrotation Xrotation Zrotation
						JOINT LeftUpperArm
						{
							OFFSET 15.6000 0.0000 0.0000
							CHANNELS 3 Yrotation Xrotation Zrotation
							JOINT LeftLowerArm
							{
								OFFSET 26.0000 0.0000 0.0000
								CHANNELS 3 Yrotation Xrotation Zrotation
								JOINT LeftHand
								{
									OFFSET 28.4000 0.0000 0.0000
									CHANNELS 3 Yrotation Xrotation Zrotation
									JOINT LeftThumbFinger
									{
										OFFSET 3.3000 0.4000 4.1000
										CHANNELS 3 Yrotation Xrotation Zrotation
										JOINT LeftThumbFinger1
										{
											OFFSET 3.5000 0.0000 3.5000
											CHANNELS 3 Yrotation Xrotation Zrotation
											JOINT LeftThumbFinger2
											{
												OFFSET 2.5000 0.0000 2.5000
												CHANNELS 3 Yrotation Xrotation Zrotation
												End Site
												{
													OFFSET 2.1450 0.0000 2.1450
												}
											}
										}
									}
									JOINT LeftIndexFinger
									{
										OFFSET 4.3000 0.7000 2.5000
										CHANNELS 3 Yrotation Xrotation Zrotation
										JOINT LeftIndexFinger1
										{
											OFFSET 7.0000 -0.1000 1.4000
											CHANNELS 3 Yrotation Xrotation Zrotation
											JOINT LeftIndexFinger2
											{
												OFFSET 5.0000 -0.2000 0.0000
												CHANNELS 3 Yrotation Xrotation Zrotation
												JOINT LeftIndexFinger3
												{
													OFFSET 2.8000 -0.2000 0.0000
													CHANNELS 3 Yrotation Xrotation Zrotation
													End Site
													{
														OFFSET 2.4696 -0.1764 0.0000
													}
												}
											}
										}
									}
									JOINT LeftMiddleFinger
									{
										OFFSET 4.5000 0.7000 0.9000
										CHANNELS 3 Yrotation Xrotation Zrotation
										JOINT LeftMiddleFinger1
										{
											OFFSET 7.1000 -0.1000 0.4000
											CHANNELS 3 Yrotation Xrotation Zrotation
											JOINT LeftMiddleFinger2
											{
												OFFSET 5.2000 -0.2000 0.0000
												CHANNELS 3 Yrotation Xrotation Zrotation
												JOINT LeftMiddleFinger3
												{
													OFFSET 3.4000 -0.4000 0.0000
													CHANNELS 3 Yrotation Xrotation Zrotation
													End Site
													{
														OFFSET 2.9988 -0.3528 0.0000
													}
												}
											}
										}
									}
									JOINT LeftRingFinger
									{
										OFFSET 4.5000 0.9000 -0.1000
										CHANNELS 3 Yrotation Xrotation Zrotation
										JOINT LeftRingFinger1
										{
											OFFSET 6.2000 -0.2000 -0.7000
											CHANNELS 3 Yrotation Xrotation Zrotation
											JOINT LeftRingFinger2
											{
												OFFSET 4.7000 -0.3000 0.0000
												CHANNELS 3 Yrotation Xrotation Zrotation
												JOINT LeftRingFinger3
												{
													OFFSET 3.3000 -0.2000 0.0000
													CHANNELS 3 Yrotation Xrotation Zrotation
													End Site
													{
														OFFSET 2.9106 -0.1764 0.0000
													}
												}
											}
										}
									}
									JOINT LeftPinkyFinger
									{
										OFFSET 4.2000 0.7000 -1.6000
										CHANNELS 3 Yrotation Xrotation Zrotation
										JOINT LeftPinkyFinger1
										{
											OFFSET 5.6000 -0.1000 -1.4000
											CHANNELS 3 Yrotation Xrotation Zrotation
											JOINT LeftPinkyFinger2
											{
												OFFSET 3.8000 -0.2000 0.1000
												CHANNELS 3 Yrotation Xrotation Zrotation
												JOINT LeftPinkyFinger3
												{
													OFFSET 2.3000 0.0000 -0.1000
													CHANNELS 3 Yrotation Xrotation Zrotation
													End Site
													{
														OFFSET 2.0286 0.0000 -0.0882
													}
												}
											}
										}
									}
								}
							}
						}
					}
				}
			}
		}
	}
}
MOTION
Frames: 10
Frame Time: 0.016667
-30.34 109.31 57.26 36.21 0.03 -1.52 -2.74 -9.62 5.28 -7.85 15.62 -1.13 9.17 -7.26 -4.34 0.00 -0.00 0.00 21.81 -12.80 5.66 -6.78 2.79 -0.43 -11.21 8.17 -11.82 0.00 0.00 0.00 1.30 3.97 -2.01 2.12 4.68 0.12 2.30 5.05 0.14 2.30 5.05 0.15 -5.48 10.33 -3.85 -4.61 8.82 -3.21 22.44 5.92 -7.52 9.47 -47.60 70.99 19.02 12.12 12.61 7.99 1.43 2.51 -12.51 6.33 4.51 -2.41 -0.78 -13.46 3.76 -2.23 1.28 -0.00 -0.00 -0.00 0.44 -0.23 27.86 -0.05 -0.22 25.97 -0.06 -0.23 25.97 -0.00 -0.00 -0.00 0.14 -0.07 24.06 -0.11 -0.13 62.98 -0.09 -0.12 62.98 -0.00 -0.00 -0.00 0.13 -0.07 31.67 -0.11 -0.15 69.21 -0.11 -0.11 69.22 -0.00 -0.00 -0.00 0.14 -0.03 12.15 -0.07 -0.11 47.65 -0.05 -0.11 47.66 -9.02 11.76 -3.58 12.76 -33.33 -91.53 -25.28 -19.30 -22.24 313.61 -53.63 -327.55 -17.27 1.05 0.76 15.40 23.45 -16.76 21.45 12.47 -19.72 -0.00 -0.00 0.00 -0.01 0.00 -30.62 0.00 -0.01 -11.37 -0.00 -0.02 -11.34 -0.00 -0.00 0.00 -0.00 0.00 -13.66 -0.01 -0.01 -50.17 -0.01 -0.00 -50.21 -0.00 -0.00 0.00 0.00 0.00 -24.65 -0.00 0.00 -63.51 -0.01 0.01 -63.54 -0.00 -0.00 0.00 0.00 -0.00 -18.67 -0.00 0.00 -57.14 -0.01 0.00 -57.17 
-30.33 109.30 57.24 36.34 0.03 -1.48 -2.99 -9.69 5.23 -7.81 15.80 -1.16 9.25 -7.39 -4.33 0.00 0.00 0.00 21.71 -12.74 5.60 -6.74 2.71 -0.41 -11.25 8.19 -11.82 -0.00 0.00 -0.00 1.31 4.03 -2.14 2.16 4.75 0.12 2.33 5.13 0.15 2.33 5.13 0.13 -5.48 10.15 -3.82 -4.62 8.68 -3.20 22.37 5.70 -7.53 8.49 -47.80 71.91 18.42 12.72 12.60 8.16 2.94 1.69 -10.33 4.43 3.23 -8.26 -1.80 -14.08 2.06 1.28 3.58 -0.00 0.00 0.00 0.23 -0.13 28.85 -0.02 -0.13 26.58 -0.05 -0.12 26.57 -0.00 0.00 0.00 0.03 -0.01 25.36 -0.05 -0.03 64.18 -0.01 -0.00 64.20 -0.00 0.00 0.00 0.02 -0.01 33.66 -0.04 -0.03 70.58 -0.02 -0.01 70.56 -0.00 0.00 0.00 0.02 0.00 13.74 -0.02 -0.03 50.33 -0.02 -0.02 50.34 -9.11 11.65 -3.60 11.97 -33.39 -91.16 -25.80 -18.80 -22.08 312.14 -53.04 -325.24 -15.75 2.40 -1.43 15.86 23.14 -16.79 22.49 11.82 -18.63 0.00 0.00 0.00 0.01 -0.01 -31.98 0.01 -0.01 -12.65 0.00 0.00 -12.70 0.00 0.00 0.00 0.00 0.00 -14.54 -0.01 0.01 -51.54 -0.00 -0.01 -51.57 0.00 0.00 0.00 0.01 -0.00 -26.43 -0.01 0.01 -65.13 -0.00 0.00 -65.14 0.00 0.00 0.00 -0.00 -0.00 -19.87 0.01 0.01 -58.57 -0.01 0.00 -58.60 
-30.30 109.29 57.23 36.49 0.02 -1.43 -3.23 -9.76 5.18 -7.78 15.97 -1.22 9.31 -7.46 -4.31 0.00 0.00 0.00 21.58 -12.71 5.54 -6.70 2.67 -0.42 -11.27 8.24 -11.80 0.00 0.00 -0.00 1.28 4.08 -2.24 2.18 4.82 0.12 2.36 5.20 0.15 2.36 5.20 0.16 -5.49 10.00 -3.82 -4.63 8.55 -3.18 22.28 5.48 -7.58 7.79 -47.86 72.52 18.08 12.90 12.74 8.18 3.98 0.52 -7.78 2.27 1.69 -14.12 -2.72 -14.83 -0.02 4.95 4.85 0.00 0.00 0.00 0.37 -0.21 30.64 -0.08 -0.20 27.31 -0.04 -0.19 27.32 0.00 0.00 0.00 0.01 0.00 27.06 -0.02 0.00 65.67 -0.01 0.01 65.67 0.00 0.00 0.00 0.00 0.01 36.25 -0.02 -0.01 72.19 0.01 0.01 72.18 0.00 0.00 0.00 0.00 0.01 15.36 -0.02 -0.01 52.74 -0.01 -0.00 52.76 -9.23 11.59 -3.62 11.05 -33.49 -90.72 -26.32 -18.59 -21.80 310.76 -52.13 -323.00 -11.95 4.13 -4.38 16.38 22.22 -14.59 23.23 11.24 -16.18 0.00 0.00 0.00 0.00 -0.00 -34.34 0.01 -0.02 -14.18 0.01 0.04 -14.18 0.00 0.00 0.00 0.00 -0.01 -15.76 0.00 0.02 -53.35 -0.01 -0.00 -53.39 0.00 0.00 0.00 0.01 0.00 -28.83 -0.01 0.00 -67.09 0.01 -0.01 -67.12 0.00 0.00 0.00 -0.00 0.00 -21.53 -0.00 0.01 -60.40 -0.00 0.00 -60.45 
-30.28 109.28 57.22 36.58 0.02 -1.37 -3.42 -9.81 5.12 -7.77 16.13 -1.26 9.38 -7.58 -4.29 -0.00 -0.00 0.00 21.48 -12.66 5.47 -6.68 2.62 -0.42 -11.29 8.26 -11.79 0.00 0.00 0.00 1.29 4.15 -2.36 2.20 4.88 0.12 2.40 5.28 0.14 2.40 5.28 0.14 -5.50 9.88 -3.83 -4.62 8.44 -3.19 22.10 5.28 -7.57 7.13 -47.78 73.09 17.94 12.93 13.05 8.32 4.71 -0.98 -5.28 0.27 0.10 -19.65 -3.84 -15.84 -2.56 8.11 4.63 -0.00 0.00 0.00 0.23 -0.15 33.01 -0.04 -0.15 28.38 -0.05 -0.14 28.39 -0.00 0.00 0.00 0.00 -0.00 29.58 -0.04 -0.01 67.69 -0.00 0.02 67.71 -0.00 0.00 0.00 -0.01 -0.00 39.98 -0.01 -0.00 74.29 -0.01 0.02 74.28 -0.00 0.00 0.00 -0.01 0.00 17.02 -0.01 -0.01 55.08 -0.01 -0.01 55.11 -9.35 11.58 -3.66 9.62 -33.53 -90.12 -27.21 -18.57 -21.30 309.22 -50.96 -320.29 -1.55 7.34 -8.30 16.85 18.71 -6.07 22.83 10.32 -10.00 0.00 0.00 -0.00 0.00 -0.01 -38.98 0.01 0.01 -16.52 -0.01 0.02 -16.54 0.00 0.00 -0.00 -0.01 -0.01 -18.44 0.00 0.01 -56.88 0.01 -0.01 -56.92 0.00 0.00 -0.00 0.00 -0.00 -32.80 -0.00 0.01 -69.99 -0.00 -0.00 -70.04 0.00 0.00 -0.00 0.01 -0.00 -25.13 -0.00 0.01 -63.97 -0.01 0.01 -64.00 
-30.25 109.28 57.21 36.70 0.02 -1.33 -3.67 -9.85 5.10 -7.73 16.27 -1.31 9.48 -7.66 -4.27 -0.00 -0.00 0.00 21.34 -12.62 5.42 -6.66 2.58 -0.41 -11.30 8.26 -11.82 0.00 -0.00 0.00 1.25 4.21 -2.45 2.25 4.95 0.12 2.41 5.34 0.13 2.42 5.35 0.15 -5.49 9.78 -3.83 -4.61 8.35 -3.22 21.93 5.11 -7.63 6.71 -47.70 73.48 17.95 12.88 13.28 8.59 4.95 -2.60 -5.00 0.07 -0.09 -22.71 -5.90 -17.08 -2.77 8.98 4.09 -0.00 -0.00 -0.00 0.18 -0.12 35.78 -0.05 -0.12 30.10 -0.04 -0.11 30.11 -0.00 0.00 0.00 0.01 -0.01 32.28 -0.02 -0.01 69.66 -0.01 0.02 69.65 -0.00 0.00 0.00 -0.00 0.01 43.70 -0.02 -0.01 76.08 -0.01 0.02 76.08 -0.00 0.00 0.00 0.01 0.00 18.92 -0.02 0.00 57.46 -0.00 -0.00 57.47 -9.47 11.58 -3.74 8.60 -33.62 -89.63 -27.90 -18.53 -21.03 307.86 -49.22 -317.20 -1.54 7.37 -8.31 16.85 18.71 -6.06 22.82 10.32 -10.00 0.00 0.00 0.00 0.01 0.00 -38.99 -0.00 -0.01 -16.52 0.01 -0.00 -16.54 0.00 0.00 0.00 0.01 0.01 -18.45 -0.01 0.00 -56.87 0.00 0.00 -56.90 0.00 0.00 0.00 0.01 0.01 -32.80 0.00 0.01 -70.00 -0.00 0.00 -70.04 0.00 0.00 0.00 0.00 0.00 -25.13 0.00 0.02 -63.97 -0.02 -0.01 -64.00 
-30.22 109.27 57.22 36.81 0.02 -1.30 -3.88 -9.89 5.06 -7.69 16.41 -1.36 9.53 -7.75 -4.26 0.00 0.00 0.00 21.23 -12.59 5.38 -6.65 2.56 -0.41 -11.30 8.27 -11.82 0.00 -0.00 -0.00 1.23 4.28 -2.56 2.26 5.02 0.13 2.41 5.43 0.14 2.43 5.41 0.16 -5.46 9.69 -3.89 -4.59 8.28 -3.25 21.76 4.94 -7.65 6.21 -47.45 73.96 18.10 12.85 13.65 9.19 4.82 -4.61 -5.00 0.08 -0.09 -23.78 -7.76 -17.95 -2.04 8.48 3.82 0.00 -0.00 0.00 0.36 -0.30 40.49 -0.08 -0.27 32.26 -0.08 -0.25 32.26 -0.00 0.00 0.00 0.00 -0.00 37.70 -0.02 0.00 73.04 -0.00 0.03 73.05 -0.00 0.00 0.00 -0.00 -0.00 51.98 -0.01 -0.01 79.30 -0.01 0.01 79.31 -0.00 0.00 0.00 0.00 0.00 23.22 -0.02 0.00 62.16 -0.00 -0.00 62.16 -9.57 11.57 -3.82 7.36 -33.61 -89.19 -28.60 -18.69 -20.54 305.76 -46.72 -312.59 3.32 5.57 -5.55 17.14 14.21 1.83 22.31 10.27 -4.93 0.00 0.00 -0.00 -0.00 0.01 -43.86 -0.00 -0.01 -18.15 0.00 -0.00 -18.16 0.00 0.00 -0.00 -0.01 -0.00 -20.85 0.02 -0.00 -59.69 -0.00 0.03 -59.70 0.00 0.00 -0.00 0.00 0.00 -36.17 -0.01 0.01 -72.13 0.00 -0.01 -72.17 0.00 0.00 -0.00 1.96 1.07 -28.51 -1.37 2.06 -66.85 -1.37 2.04 -66.87 
-30.22 109.27 57.22 36.81 0.02 -1.30 -3.88 -9.89 5.06 -7.69 16.41 -1.36 9.53 -7.75 -4.26 0.00 0.00 0.00 21.23 -12.59 5.38 -6.65 2.56 -0.41 -11.30 8.27 -11.82 0.00 -0.00 -0.00 1.23 4.28 -2.56 2.26 5.02 0.13 2.41 5.43 0.14 2.43 5.41 0.16 -5.46 9.69 -3.89 -4.59 8.28 -3.25 21.76 4.94 -7.65 6.21 -47.45 73.96 18.10 12.85 13.65 9.19 4.82 -4.61 -5.00 0.08 -0.09 -23.78 -7.76 -17.95 -2.04 8.48 3.82 0.00 -0.00 0.00 0.36 -0.30 40.49 -0.08 -0.27 32.26 -0.08 -0.25 32.26 -0.00 0.00 0.00 0.00 -0.00 37.70 -0.02 0.00 73.04 -0.00 0.03 73.05 -0.00 0.00 0.00 -0.00 -0.00 51.98 -0.01 -0.01 79.30 -0.01 0.01 79.31 -0.00 0.00 0.00 0.00 0.00 23.22 -0.02 0.00 62.16 -0.00 -0.00 62.16 -9.57 11.57 -3.82 7.36 -33.61 -89.19 -28.60 -18.69 -20.54 305.76 -46.72 -312.59 3.32 5.57 -5.55 17.14 14.21 1.83 22.31 10.27 -4.93 0.00 0.00 -0.00 -0.00 0.01 -43.86 -0.00 -0.01 -18.15 0.00 -0.00 -18.16 0.00 0.00 -0.00 -0.01 -0.00 -20.85 0.02 -0.00 -59.69 -0.00 0.03 -59.70 0.00 0.00 -0.00 0.00 0.00 -36.17 -0.01 0.01 -72.13 0.00 -0.01 -72.17 0.00 0.00 -0.00 1.96 1.07 -28.51 -1.37 2.06 -66.85 -1.37 2.04 -66.87 
-30.17 109.28 57.23 36.91 0.02 -1.25 -4.08 -9.88 5.02 -7.65 16.49 -1.39 9.60 -7.83 -4.23 -0.00 -0.00 0.00 21.13 -12.53 5.32 -6.63 2.53 -0.41 -11.30 8.24 -11.86 -0.00 -0.00 -0.00 1.22 4.32 -2.65 2.25 5.08 0.13 2.44 5.50 0.15 2.43 5.49 0.14 -5.42 9.61 -3.93 -4.56 8.22 -3.29 21.57 4.82 -7.71 5.92 -47.35 74.29 18.21 12.85 13.99 9.89 4.25 -6.63 -5.00 0.08 -0.07 -22.75 -8.97 -18.35 -1.21 6.44 3.48 -0.00 0.00 -0.00 0.50 -0.46 43.03 -0.14 -0.39 33.24 -0.11 -0.37 33.25 -0.00 0.00 -0.00 -0.01 0.00 42.07 -0.01 -0.00 75.32 0.00 0.02 75.31 -0.00 0.00 -0.00 -0.01 0.00 61.52 -0.02 -0.00 81.95 -0.00 0.02 81.94 -0.00 0.00 -0.00 -0.63 0.35 28.59 0.41 0.66 66.94 0.45 0.69 66.92 -9.67 11.55 -3.90 6.69 -33.69 -88.95 -28.82 -18.82 -20.30 304.99 -45.79 -311.13 4.99 0.07 0.08 19.54 11.32 7.22 23.91 16.15 -1.59 -0.00 -0.00 -0.00 -0.00 -0.00 -47.05 0.00 -0.01 -18.14 0.01 0.00 -18.18 -0.00 -0.00 -0.00 -0.01 -0.01 -22.11 0.01 -0.00 -61.03 -0.00 0.00 -61.04 -0.00 -0.00 -0.00 0.01 0.00 -38.99 -0.01 0.02 -73.74 -0.01 -0.00 -73.78 -0.00 -0.00 -0.00 3.09 1.82 -30.58 -2.28 3.35 -68.42 -2.28 3.33 -68.47 
-30.10 109.28 57.25 36.99 0.03 -1.25 -4.28 -9.85 4.99 -7.57 16.51 -1.41 9.63 -7.89 -4.20 -0.00 0.00 -0.00 21.02 -12.50 5.32 -6.63 2.52 -0.41 -11.28 8.23 -11.89 0.00 0.00 0.00 1.18 4.38 -2.69 2.25 5.14 0.12 2.42 5.56 0.15 2.42 5.55 0.15 -5.34 9.57 -4.00 -4.51 8.20 -3.34 21.43 4.72 -7.73 5.79 -47.15 74.52 18.37 12.78 14.37 11.72 3.08 -9.25 -5.00 0.07 -0.08 -22.75 -8.96 -18.34 -1.23 6.43 3.47 -0.00 -0.00 -0.00 0.50 -0.48 43.03 -0.13 -0.38 33.23 -0.10 -0.38 33.25 -0.00 -0.00 -0.00 -0.00 -0.00 42.06 -0.02 -0.00 75.33 0.00 0.01 75.31 -0.00 -0.00 -0.00 0.01 -0.01 61.51 -0.01 -0.01 81.96 -0.01 0.02 81.94 -0.00 -0.00 -0.00 -0.63 0.35 28.60 0.41 0.65 66.93 0.45 0.69 66.92 -9.71 11.56 -4.00 6.21 -33.71 -88.91 -28.74 -19.05 -20.13 302.36 -44.33 -307.88 4.99 0.07 0.08 22.06 10.62 8.40 25.45 16.99 0.32 0.00 -0.00 -0.00 0.00 -0.01 -46.67 0.01 -0.02 -17.84 -0.01 -0.00 -17.85 0.00 -0.00 -0.00 0.02 -0.01 -21.82 0.00 -0.00 -60.74 -0.00 0.02 -60.74 0.00 -0.00 -0.00 0.00 0.01 -39.22 -0.01 -0.01 -73.85 0.01 -0.00 -73.89 0.00 -0.00 -0.00 3.09 1.81 -30.49 -2.27 3.34 -68.37 -2.27 3.34 -68.39 
-30.01 109.29 57.27 37.07 0.02 -1.21 -4.44 -9.77 4.94 -7.49 16.48 -1.42 9.67 -7.94 -4.16 -0.00 0.00 0.00 20.97 -12.43 5.28 -6.63 2.52 -0.41 -11.31 8.17 -11.92 0.00 -0.00 -0.00 1.15 4.43 -2.78 2.24 5.20 0.11 2.42 5.63 0.13 2.42 5.63 0.14 -5.27 9.50 -4.06 -4.44 8.12 -3.40 21.25 4.61 -7.76 5.75 -46.98 74.71 18.62 12.68 14.66 14.79 1.02 -11.06 -5.00 0.07 -0.08 -22.14 -9.50 -18.52 -0.83 5.35 3.29 0.00 0.00 -0.00 0.52 -0.48 43.29 -0.13 -0.40 33.14 -0.12 -0.39 33.14 0.00 0.00 -0.00 -0.01 -0.00 42.93 -0.03 -0.01 75.74 -0.02 0.03 75.73 0.00 0.00 -0.00 -0.02 0.00 64.10 -0.01 0.02 82.53 -0.00 0.01 82.50 0.00 0.00 -0.00 -0.97 0.55 30.10 0.68 1.03 68.07 0.69 1.02 68.09 -9.76 11.51 -4.09 6.01 -33.69 -89.00 -28.65 -19.18 -20.05 296.25 -44.85 -304.36 5.00 0.06 0.07 22.05 10.60 8.41 25.46 17.00 0.33 0.00 -0.00 0.00 0.00 -0.01 -46.67 0.01 0.00 -17.83 -0.00 -0.01 -17.86 0.00 -0.00 0.00 0.01 0.01 -21.84 -0.00 -0.02 -60.73 0.01 0.02 -60.75 0.00 -0.00 0.00 0.00 0.00 -39.22 -0.01 -0.00 -73.86 -0.00 -0.01 -73.89 0.00 -0.00 0.00 3.08 1.83 -30.51 -2.26 3.33 -68.36 -2.26 3.33 -68.39 
